<svg xmlns="http://www.w3.org/2000/svg" xmlns:xlink="http://www.w3.org/1999/xlink" version="1.1" x="0px" y="0px" viewBox="0 0 100 125" enable-background="new 0 0 100 100" xml:space="preserve"><path fill="#000000" d="M41.583,67.438h56.05v1.453h-1.567l-2.229,3.469c-0.133,0.207-0.363,0.332-0.611,0.332h-2.539  c-0.279,0-0.534-0.16-0.655-0.41c-0.964-2.006-2.938-3.252-5.155-3.252c-2.216,0-4.19,1.246-5.154,3.252  c-0.119,0.25-0.375,0.41-0.654,0.41H61.09c-0.279,0-0.533-0.16-0.655-0.41c-0.964-2.006-2.938-3.252-5.153-3.252  c-2.218,0-4.191,1.246-5.155,3.252c-0.121,0.25-0.375,0.41-0.655,0.41h-3.696c-0.247,0-0.477-0.125-0.61-0.332l-2.229-3.469h-1.35  v-1.453H41.583z M59.909,74.749c0,2.571-2.092,4.662-4.661,4.662c-2.572,0-4.664-2.091-4.664-4.662s2.092-4.663,4.664-4.663  C57.817,70.086,59.909,72.178,59.909,74.749z M56.67,74.749c0-0.786-0.638-1.424-1.422-1.424c-0.787,0-1.425,0.638-1.425,1.424  s0.638,1.422,1.425,1.422C56.032,76.171,56.67,75.535,56.67,74.749z M89.537,74.749c0,2.571-2.093,4.662-4.662,4.662  c-2.572,0-4.664-2.091-4.664-4.662s2.092-4.663,4.664-4.663C87.444,70.086,89.537,72.178,89.537,74.749z M86.299,74.749  c0-0.786-0.64-1.424-1.426-1.424c-0.785,0-1.423,0.638-1.423,1.424s0.638,1.422,1.423,1.422  C85.66,76.171,86.299,75.535,86.299,74.749z M97.633,64.65v1.453h-56.05V64.65h2.931l6.142-17.158  c0.104-0.289,0.377-0.48,0.685-0.48h2.412V46.13c0-0.384,0.299-0.7,0.678-0.725l0.857-3.284c0.082-0.32,0.393-0.544,0.723-0.544  h0.615c0.332,0,0.619,0.224,0.703,0.544l0.855,3.284c0.384,0.02,0.689,0.337,0.689,0.725v0.882h17.67V46.13  c0-0.384,0.299-0.7,0.678-0.725l0.857-3.284c0.082-0.32,0.393-0.544,0.725-0.544h0.613c0.332,0,0.621,0.224,0.703,0.544l0.856,3.284  c0.383,0.02,0.688,0.337,0.688,0.725v0.882h2.666c0.269,0,0.516,0.146,0.643,0.384l9.203,17.256h3.457V64.65z M57.36,49.116h-1.454  V63.67h1.454V49.116z M61.857,61.655h-2.812v1.452h2.812V61.655z M61.857,57.477h-2.812v1.453h2.812V57.477z M61.857,55.386h-2.812  v1.453h2.812V55.386z M61.857,53.296h-2.812v1.452h2.812V53.296z M61.857,49.116h-2.812v1.452h2.812V49.116z M65.319,61.655h-2.812  v1.452h2.812V61.655z M65.319,59.564h-2.812v1.453h2.812V59.564z M65.319,57.477h-2.812v1.453h2.812V57.477z M65.319,55.386h-2.812  v1.453h2.812V55.386z M65.319,53.296h-2.812v1.452h2.812V53.296z M65.319,51.206h-2.812v1.453h2.812V51.206z M65.319,49.116h-2.812  v1.452h2.812V49.116z M68.78,61.655h-2.812v1.452h2.812V61.655z M68.78,59.564h-2.812v1.453h2.812V59.564z M68.78,53.296h-2.812  v1.452h2.812V53.296z M68.78,51.206h-2.812v1.453h2.812V51.206z M68.78,49.116h-2.812v1.452h2.812V49.116z M72.241,59.564H69.43  v1.453h2.812V59.564z M72.241,57.477H69.43v1.453h2.812V57.477z M72.241,55.386H69.43v1.453h2.812V55.386z M72.241,53.296H69.43  v1.452h2.812V53.296z M72.241,51.206H69.43v1.453h2.812V51.206z M75.705,61.655h-2.812v1.452h2.812V61.655z M75.705,59.564h-2.812  v1.453h2.812V59.564z M75.705,55.386h-2.812v1.453h2.812V55.386z M75.705,53.296h-2.812v1.452h2.812V53.296z M75.705,51.206h-2.812  v1.453h2.812V51.206z M75.705,49.116h-2.812v1.452h2.812V49.116z M79.014,49.116h-1.451V63.67h1.451V49.116z M27.156,25.539  c0.12-0.043,0.242-0.082,0.37-0.11c0.214-0.047,0.434-0.071,0.653-0.071c1.17,0,2.224,0.693,2.718,1.719  c0.225-0.117,0.359-0.369,0.309-0.631l-0.229-1.188l4-1.062c0.535-0.143,1.055,0.183,1.158,0.726l0.049,0.254  c0.046,0.245,0.268,0.186,0.268,0.186s0.762-0.214,0.888-0.247c0.202-0.054,0.172-0.236,0.165-0.263  c-0.406-1.524-1.931-2.581-3.513-2.407l-6.637,1.017c-0.322,0.049-0.532,0.347-0.471,0.665L27.156,25.539z M36.248,31.765  c0,0-0.192-0.124-0.311,0.096l-0.125,0.227c-0.264,0.484-0.858,0.637-1.324,0.338l-3.774-2.413  c-0.417,0.647-1.078,1.137-1.886,1.316c-0.205,0.045-0.415,0.068-0.623,0.07l4.813,2.396c1.453,0.648,3.228,0.106,4.078-1.223  c0.016-0.023,0.099-0.188-0.076-0.299C36.908,32.202,36.248,31.765,36.248,31.765z M8.961,46.569  c-0.71-0.75-1.622-1.228-2.619-1.393l7.479-7.082l0.238,1.18l11.12-10.528c0.012,0.093,0.027,0.188,0.048,0.282  c0.096,0.437,0.288,0.835,0.549,1.177L14.403,40.973l0.271,1.338l7.158-6.778c-0.212-0.392-0.148-0.891,0.191-1.214  c0.34-0.321,0.842-0.357,1.221-0.124l3.401-3.22c0.182,0.107,0.374,0.196,0.576,0.265l-3.586,3.395  c0.175,0.383,0.102,0.849-0.221,1.154c-0.03,0.028-0.064,0.05-0.096,0.075l0.546,1.521c0.188,0.027,0.365,0.147,0.45,0.387  l0.451,1.261c0.087,0.241,0.027,0.445-0.103,0.586l0.519,1.447c0.259,0.014,0.51,0.163,0.628,0.492l5.252,14.652  c-0.254-0.042-0.512-0.068-0.772-0.068c-0.267,0-0.53,0.024-0.789,0.067l-5.076-14.155c-0.122-0.342-0.009-0.625,0.199-0.8  l-0.515-1.438c-0.188-0.026-0.365-0.146-0.451-0.387l-0.45-1.261c-0.087-0.241-0.026-0.446,0.102-0.585l-0.545-1.524  c-0.177,0.008-0.353-0.03-0.514-0.114l-7.439,7.044l0.271,1.339l-4.91,4.647C10.018,48.08,9.603,47.247,8.961,46.569z   M22.404,35.352c0.165,0.174,0.438,0.181,0.611,0.017c0.173-0.164,0.181-0.437,0.017-0.61c-0.164-0.173-0.437-0.181-0.61-0.018  C22.249,34.905,22.241,35.179,22.404,35.352z M26.585,29.882c-0.398-0.42-0.608-0.97-0.593-1.548  c0.017-0.579,0.256-1.115,0.676-1.513c0.404-0.383,0.933-0.593,1.489-0.593c0.601,0,1.159,0.241,1.573,0.677  c0.397,0.42,0.608,0.97,0.592,1.548c-0.016,0.577-0.255,1.115-0.676,1.513c-0.404,0.383-0.932,0.594-1.488,0.594  C27.557,30.56,26.999,30.319,26.585,29.882z M27.423,29.09c0.384,0.405,1.023,0.422,1.429,0.038c0.406-0.384,0.424-1.024,0.04-1.431  c-0.384-0.405-1.024-0.423-1.43-0.039C27.056,28.043,27.039,28.684,27.423,29.09z M8.172,52.544c-0.708,0.672-1.635,1.04-2.609,1.04  c-1.039,0-2.044-0.434-2.758-1.188c-1.438-1.52-1.373-3.928,0.148-5.366c0.708-0.67,1.635-1.04,2.61-1.04  c1.039,0,2.043,0.433,2.757,1.187c0.697,0.735,1.066,1.7,1.039,2.714C9.332,50.904,8.909,51.848,8.172,52.544z M6.769,48.646  c-0.63-0.665-1.68-0.695-2.347-0.063c-0.665,0.629-0.693,1.68-0.063,2.347c0.63,0.664,1.681,0.693,2.346,0.063  C7.37,50.362,7.399,49.312,6.769,48.646z M33.046,58.334c0.698,0.736,1.066,1.699,1.039,2.715c-0.027,1.014-0.448,1.956-1.186,2.653  c-0.708,0.67-1.635,1.039-2.609,1.039c-1.04,0-2.044-0.433-2.759-1.187c-1.438-1.521-1.373-3.929,0.148-5.367  c0.709-0.67,1.636-1.041,2.611-1.041C31.33,57.146,32.334,57.58,33.046,58.334z M31.496,59.803c-0.63-0.664-1.68-0.691-2.347-0.062  c-0.665,0.63-0.694,1.681-0.063,2.346c0.63,0.666,1.681,0.694,2.346,0.063C32.097,61.521,32.126,60.47,31.496,59.803z   M26.155,63.381l-4.382-2.148l-0.334-3.237L14.411,54.6l-2.717,1.688l-4.392-2.153c0.542-0.217,1.044-0.537,1.479-0.947  c0.908-0.859,1.427-2.021,1.461-3.271c0.003-0.117-0.002-0.236-0.007-0.352l16.545,8.114C25.316,59.248,25.096,61.581,26.155,63.381  z M11.922,54.482c-0.257-0.127-0.568-0.02-0.694,0.236c-0.126,0.26-0.02,0.569,0.237,0.693c0.257,0.128,0.568,0.021,0.694-0.235  C12.287,54.921,12.179,54.609,11.922,54.482z M13.504,53.542c-0.257-0.126-0.568-0.021-0.694,0.235  c-0.127,0.258-0.021,0.567,0.237,0.695c0.257,0.125,0.568,0.02,0.694-0.238C13.867,53.979,13.76,53.668,13.504,53.542z   M22.284,59.002c0.257,0.127,0.568,0.02,0.694-0.234c0.125-0.26,0.019-0.57-0.238-0.695c-0.257-0.127-0.567-0.021-0.694,0.236  C21.92,58.566,22.026,58.876,22.284,59.002z M22.963,59.896c-0.257-0.125-0.567-0.02-0.693,0.237  c-0.127,0.259-0.02,0.568,0.237,0.694s0.567,0.021,0.694-0.237C23.329,60.335,23.221,60.025,22.963,59.896z M43.476,63.761  l0.491-1.372h-5.192c-0.236,0-0.427-0.19-0.427-0.427c0-0.235,0.19-0.428,0.427-0.428h5.498l0.45-1.259h-5.948  c-0.236,0-0.427-0.189-0.427-0.426c0-0.238,0.19-0.428,0.427-0.428h6.254l0.44-1.23H34.217c0.591,0.84,0.901,1.839,0.873,2.886  c-0.026,0.979-0.347,1.907-0.913,2.684H43.476z M55.114,25.151l3.531,0.059c0.159,0.002,0.3-0.091,0.364-0.227h0.033l0.039-2.347  l0.021-1.346c0.005-0.218-0.17-0.398-0.389-0.402l-3.53-0.057c-0.218-0.003-0.397,0.169-0.402,0.389l-0.007,0.321l-0.044,2.792  l-0.006,0.417C54.723,24.967,54.896,25.147,55.114,25.151z M61.221,24.622l0.025-1.555c0.004-0.219-0.17-0.398-0.388-0.402  l-1.349-0.022l-0.037,2.347l1.346,0.021C61.039,25.015,61.217,24.841,61.221,24.622z M85.754,34.589l-9.586,1.377  c-1.623,0.209-1.94-0.411-2.393-1.025c-0.209-0.288-0.794-1.285,0.538-1.482c3.403-0.507,3.696,0.902,4.938,0.681  c0.408-0.073,6.198-1.68,6.198-1.68C86.871,32.259,87.172,34.388,85.754,34.589z M85.613,33.138  c-0.217-0.004-0.395,0.169-0.396,0.386c-0.004,0.216,0.168,0.396,0.385,0.398c0.217,0.005,0.395-0.169,0.398-0.385  C86.004,33.319,85.83,33.141,85.613,33.138z M36.686,26.185c0,0,0.753-0.212,0.877-0.245c0.322-0.086,0.546-0.283,0.674-0.521  l6.224,0.102l0.011-0.704l-2.617,0.044c-0.218-0.003-0.392-0.184-0.388-0.401l0.057-3.482c0.004-0.218,0.184-0.392,0.401-0.388  l6.822,0.34l5.601,0.566l-0.049,2.867l-1.022,0.069l-0.021,1.233l9.925,0.164c0.534,0.009,0.961,0.449,0.95,0.983l-0.014,0.896  l0.518,0.008l0.072-0.069c0.553-0.524,1.434-0.943,1.969-0.935l6.006,0.098l3.431,0.057l6.009,0.1  c0.393,0.005,0.963,0.248,1.449,0.591l0.023-1.478c0.008-0.341,0.283-0.608,0.617-0.603c0.168,0.003,0.318,0.074,0.428,0.186  l0.697,0.895c0.101,0.138,0.183,0.268,0.179,0.438l-0.017,0.855l0.81,0.014c0.295,0.004,0.532,0.248,0.528,0.545l-0.01,0.545  l0.149,0.003c0.298,0.005,0.532,0.249,0.528,0.546l-0.023,1.437c-0.004,0.297-0.251,0.533-0.547,0.529l-1.453-0.022l-0.005,0.323  c0,0.073-0.017,0.143-0.044,0.206c-0.026,0.002-0.055,0.006-0.081,0.01c0,0-5.777,1.605-6.185,1.678  c-0.472,0.084-0.974-0.253-1.395-0.422c-0.738-0.294-1.751-0.527-3.532-0.261c-0.866,0.128-1.243,0.591-1.256,1.142l-12.681-0.168  l-0.811-0.042c0.062,0.264,0.092,0.54,0.09,0.824c-0.008,0.401-0.09,0.784-0.226,1.14l-0.765-0.249  c0.111-0.282,0.181-0.585,0.186-0.904c0.005-0.297-0.041-0.585-0.132-0.853l-2.769-0.142l-1.172,0.75  c0.006,0.276,0.059,0.541,0.145,0.791c0.086-0.202,0.311-0.31,0.521-0.24l8.014,2.604l0.211-0.652l1.384,0.45l-0.12,0.37  l0.564,0.184l0.447-1.375c0.108-0.337,0.471-0.522,0.807-0.411c0.338,0.109,0.521,0.472,0.412,0.808l-0.446,1.375l2.598,0.845  l0.187-0.574c0.111-0.337,0.471-0.522,0.811-0.412c0.336,0.11,0.521,0.471,0.41,0.808l-0.785,2.42  c-0.061,0.185-0.201,0.332-0.384,0.401l-3.532,1.344c-0.008,0.036-0.012,0.072-0.021,0.108c-0.031,0.094-0.072,0.182-0.119,0.264  l2.003,2.304h-1.7l-1.424-1.638c-0.154,0.006-0.311-0.01-0.465-0.062c-0.711-0.23-1.1-0.994-0.868-1.705  c0.144-0.437,0.485-0.751,0.896-0.875l0.729-2.243l-0.565-0.184l-0.121,0.379l-1.383-0.45l0.217-0.667l-7.979-2.593  c0.104,0.157,0.228,0.305,0.362,0.437c0.388,0.37-0.17,0.949-0.557,0.579c-0.521-0.502-0.883-1.164-1.003-1.903l-0.497,0.32  c0.277,1.134,1.316,1.997,2.584,2.016c0.465,0.008,0.901-0.099,1.285-0.292l0.979,0.317c-0.619,0.497-1.416,0.791-2.276,0.777  c-1.528-0.025-2.824-1.009-3.276-2.366l-2.877,1.847l-2.388,4.231l0.067,0.043c1.205,0.775,0.043,2.583-1.163,1.809l-2.511-1.614  c-0.662-0.426-0.61-1.164-0.229-1.614l2.695-4.773l-0.002-0.011c0.199-0.316,0.315-0.69,0.322-1.091  c0.009-0.499-0.156-0.961-0.439-1.328l-1.819-0.093c-0.899-0.045-1.191-0.909-0.929-1.528l-4.986-0.082l-0.012,0.741  c-0.003,0.178-0.149,0.32-0.328,0.316l-0.175-0.003c0.015-0.119,0.015-0.24-0.01-0.357c-0.06-0.277-0.229-0.518-0.484-0.683  c-0.107-0.068-0.757-0.498-0.766-0.502c-0.08-0.052-0.297-0.171-0.586-0.171c-0.392,0-0.743,0.216-0.938,0.575l-0.125,0.229  c-0.017,0.03-0.037,0.046-0.061,0.046c-0.015,0-0.033-0.006-0.053-0.019l-3.583-2.291l0.027-1.636  c0.168-0.105,0.316-0.243,0.431-0.412c0.041-0.06,0.071-0.123,0.103-0.188c0.004,0,0.009-0.001,0.014-0.001l1.721,0.028l0.009-0.572  c0.01-0.592,0.319-1.11,0.779-1.412l0.75-0.199c0.012-0.003,0.023-0.005,0.032-0.005c0.037,0,0.058,0.021,0.066,0.067l0.049,0.25  c0.101,0.531,0.523,0.887,1.051,0.887l0,0C36.518,26.223,36.613,26.204,36.686,26.185z M35.87,26.72  c0.004-0.284-0.222-0.519-0.506-0.521c-0.284-0.006-0.518,0.221-0.523,0.505c-0.005,0.285,0.222,0.519,0.506,0.524  C35.63,27.23,35.864,27.004,35.87,26.72z M65.512,41.872c0.035,0.03,0.066,0.065,0.1,0.099l3.129-1.189l0.057-0.172l-2.6-0.845  L65.512,41.872z M64.784,42.461c-0.245-0.08-0.508,0.054-0.586,0.299c-0.081,0.245,0.056,0.508,0.298,0.587  c0.245,0.08,0.508-0.054,0.588-0.299C65.162,42.804,65.028,42.541,64.784,42.461z M67.518,31.899  c-0.008-0.316-0.364-0.577-0.811-0.584c-0.447-0.007-0.815,0.244-0.83,0.564L67.518,31.899z M69.776,31.929  c-0.015-0.313-0.369-0.571-0.812-0.577c-0.444-0.007-0.812,0.24-0.83,0.555L69.776,31.929z M72.033,31.959  c-0.018-0.309-0.371-0.562-0.812-0.57c-0.439-0.008-0.803,0.236-0.826,0.547L72.033,31.959z M74.291,31.989  c-0.022-0.307-0.375-0.556-0.811-0.563c-0.438-0.007-0.799,0.232-0.83,0.542L74.291,31.989z M76.547,32.019  c-0.028-0.304-0.377-0.549-0.81-0.555c-0.435-0.007-0.794,0.228-0.828,0.533L76.547,32.019z M78.803,32.048  c-0.032-0.299-0.379-0.541-0.807-0.547c-0.433-0.008-0.787,0.225-0.828,0.526L78.803,32.048z M81.062,32.078  c-0.038-0.297-0.386-0.533-0.81-0.54c-0.426-0.007-0.779,0.22-0.824,0.52L81.062,32.078z M83.318,32.108  c-0.043-0.293-0.387-0.525-0.809-0.533c-0.424-0.007-0.774,0.217-0.823,0.512L83.318,32.108z M66.014,28.192l16.762,0.275  c0.359,0.006,0.366-0.531,0.01-0.537l-16.763-0.276C65.664,27.649,65.655,28.187,66.014,28.192z M65.979,30.304l16.762,0.276  c0.644,0.011,0.66-0.957,0.015-0.968l-16.762-0.276C65.351,29.325,65.334,30.293,65.979,30.304z M44.889,32.101  c0.003-0.216-0.17-0.395-0.386-0.398c-0.216-0.004-0.395,0.169-0.398,0.385c-0.003,0.217,0.169,0.396,0.386,0.4  C44.708,32.491,44.885,32.318,44.889,32.101z M45.776,25.542l6.162,0.102l0.021-1.122l-3.273,0.224l-2.895,0.048L45.776,25.542z   M37.086,26.259c0.033,0.138,0.05,0.283,0.047,0.431l-0.009,0.573l26.133,0.43l0.016-0.894c0-0.06-0.047-0.109-0.105-0.11  L37.086,26.259z"/><text x="0" y="115" fill="#000000" font-size="5px" font-weight="bold" font-family="'Helvetica Neue', Helvetica, Arial-Unicode, Arial, Sans-serif">Created by Simon Child</text><text x="0" y="120" fill="#000000" font-size="5px" font-weight="bold" font-family="'Helvetica Neue', Helvetica, Arial-Unicode, Arial, Sans-serif">from the Noun Project</text></svg>